<svg width="124" height="150" viewBox="0 0 124 150" fill="none" xmlns="http://www.w3.org/2000/svg">
<g filter="url(#filter0_d)">
<path d="M31.9772 136.058L17.2535 124.23L21.8427 115.116L32.3596 114.728C32.3596 114.728 26.6231 104.645 28.9177 103.481C31.2123 102.318 84.9444 91.6532 94.1228 96.113C103.301 100.573 108.464 105.227 108.464 105.227L108.082 110.268L95.0789 124.617L92.0194 123.648L90.6809 125.005L88.9599 124.617L85.1356 134.119L81.12 136.252L77.2957 132.568L74.8099 135.282L61.0422 126.169V132.761L55.1145 136.446L45.3624 130.822V134.507L31.9772 136.058Z" fill="white"/>
<path d="M31.9772 136.058L17.2535 124.23L21.8427 115.116L32.3596 114.728C32.3596 114.728 26.6231 104.645 28.9177 103.481C31.2123 102.318 84.9444 91.6532 94.1228 96.113C103.301 100.573 108.464 105.227 108.464 105.227L108.082 110.268L95.0789 124.617L92.0194 123.648L90.6809 125.005L88.9599 124.617L85.1356 134.119L81.12 136.252L77.2957 132.568L74.8099 135.282L61.0422 126.169V132.761L55.1145 136.446L45.3624 130.822V134.507L31.9772 136.058Z" stroke="black" stroke-width="0.4"/>
</g>
<path d="M108.248 75.2819L108.269 75.2503L108.277 75.2132L110.572 64.5483L110.594 64.4441L110.52 64.3674L102.107 55.6416L102.002 55.5331L101.869 55.6037L93.4555 60.0635L93.4138 60.0857L93.3863 60.1241L81.9133 76.2184L81.8249 76.3424L81.9209 76.4606L87.2327 83.0014L87.9952 105.04L88.0167 105.661L88.3616 105.144L108.248 75.2819Z" fill="#A360C2"/>
<path d="M108.248 75.2819L108.269 75.2503L108.277 75.2132L110.572 64.5483L110.594 64.4441L110.52 64.3674L102.107 55.6416L102.002 55.5331L101.869 55.6037L93.4555 60.0635L93.4138 60.0857L93.3863 60.1241L81.9133 76.2184L81.8249 76.3424L81.9209 76.4606L87.2327 83.0014L87.9952 105.04L88.0167 105.661L88.3616 105.144L108.248 75.2819Z" fill="url(#paint0_linear)" fill-opacity="0.3"/>
<path d="M108.248 75.2819L108.269 75.2503L108.277 75.2132L110.572 64.5483L110.594 64.4441L110.52 64.3674L102.107 55.6416L102.002 55.5331L101.869 55.6037L93.4555 60.0635L93.4138 60.0857L93.3863 60.1241L81.9133 76.2184L81.8249 76.3424L81.9209 76.4606L87.2327 83.0014L87.9952 105.04L88.0167 105.661L88.3616 105.144L108.248 75.2819Z" stroke="black" stroke-width="0.4"/>
<path d="M101.311 104.267L101.258 104.289L101.225 104.337L98.5475 108.216L98.4934 108.294L98.5201 108.385L100.02 113.52L91.8645 123.521L91.6893 123.736L91.9484 123.835L95.0079 124.998L95.1345 125.046L95.2262 124.947L108.42 110.598L108.465 110.549L108.472 110.484L109.045 105.248L109.056 105.15L108.984 105.081L106.116 102.367L106.021 102.277L105.9 102.328L101.311 104.267Z" fill="#A360C2"/>
<path d="M101.311 104.267L101.258 104.289L101.225 104.337L98.5475 108.216L98.4934 108.294L98.5201 108.385L100.02 113.52L91.8645 123.521L91.6893 123.736L91.9484 123.835L95.0079 124.998L95.1345 125.046L95.2262 124.947L108.42 110.598L108.465 110.549L108.472 110.484L109.045 105.248L109.056 105.15L108.984 105.081L106.116 102.367L106.021 102.277L105.9 102.328L101.311 104.267Z" fill="url(#paint1_linear)" fill-opacity="0.1"/>
<path d="M101.311 104.267L101.258 104.289L101.225 104.337L98.5475 108.216L98.4934 108.294L98.5201 108.385L100.02 113.52L91.8645 123.521L91.6893 123.736L91.9484 123.835L95.0079 124.998L95.1345 125.046L95.2262 124.947L108.42 110.598L108.465 110.549L108.472 110.484L109.045 105.248L109.056 105.15L108.984 105.081L106.116 102.367L106.021 102.277L105.9 102.328L101.311 104.267Z" stroke="black" stroke-width="0.4"/>
<path d="M45.5449 130.822L45.9374 130.877L48.2132 122.8L50.8339 120.901L50.9706 120.802L50.8959 120.651L47.8365 114.446L47.8093 114.391L47.7558 114.36L42.9754 111.646L42.8635 111.582L42.7593 111.658L40.0823 113.597L39.9996 113.657V113.759V118.8V118.884L40.0597 118.943L45.5449 124.314V130.822Z" fill="#A360C2" stroke="black" stroke-width="0.4"/>
<path d="M21.8344 114.722L21.7158 114.727L21.6633 114.834L17.0741 124.141L17.0033 124.285L17.128 124.385L32.0429 136.408L32.108 136.46L32.1911 136.451L45.7675 134.899L45.9448 134.879V134.701V124.23V124.146L45.8859 124.088L35.9426 114.198L35.8806 114.137L35.7932 114.14L21.8344 114.722Z" fill="#A360C2" stroke="black" stroke-width="0.4"/>
<path d="M90.7839 108.925L90.7535 108.94L90.7298 108.964L88.2439 111.485L88.184 111.546L88.1864 111.631L88.5689 125.205L88.5743 125.399H88.7688H90.8722H90.9679L91.0279 125.325L100.398 113.69L100.463 113.609L100.434 113.509L98.9041 108.273L98.8957 108.244L98.8792 108.219L97.3495 105.892L97.2525 105.745L97.0941 105.823L90.7839 108.925Z" fill="#A360C2" stroke="black" stroke-width="0.4"/>
<path d="M61.4334 122.1L61.4351 122.007L61.3651 121.946L55.8198 117.098L55.7031 116.996L55.5752 117.084L47.9265 122.319L47.8655 122.361L47.8464 122.432L45.5517 130.964L45.5119 131.112L45.6446 131.189L55.0143 136.619L55.1181 136.679L55.2201 136.616L61.1478 132.931L61.2403 132.874L61.2422 132.765L61.4334 122.1Z" fill="#A360C2" stroke="black" stroke-width="0.4"/>
<path d="M85.6116 134.296L85.6737 134.263L85.7017 134.198L89.1436 126.248L89.1615 126.207L89.1599 126.162L87.6302 82.9203L87.6278 82.8532L87.5855 82.8012L78.5983 71.7485L78.4417 71.556L78.2868 71.7498L66.0489 87.0685L65.995 87.136L66.0072 87.2216L71.9349 128.718L71.9455 128.792L72.0022 128.841L80.9894 136.597L81.0929 136.686L81.2136 136.623L85.6116 134.296Z" fill="#A360C2"/>
<path d="M85.6116 134.296L85.6737 134.263L85.7017 134.198L89.1436 126.248L89.1615 126.207L89.1599 126.162L87.6302 82.9203L87.6278 82.8532L87.5855 82.8012L78.5983 71.7485L78.4417 71.556L78.2868 71.7498L66.0489 87.0685L65.995 87.136L66.0072 87.2216L71.9349 128.718L71.9455 128.792L72.0022 128.841L80.9894 136.597L81.0929 136.686L81.2136 136.623L85.6116 134.296Z" fill="url(#paint2_linear)" fill-opacity="0.08"/>
<path d="M85.6116 134.296L85.6737 134.263L85.7017 134.198L89.1436 126.248L89.1615 126.207L89.1599 126.162L87.6302 82.9203L87.6278 82.8532L87.5855 82.8012L78.5983 71.7485L78.4417 71.556L78.2868 71.7498L66.0489 87.0685L65.995 87.136L66.0072 87.2216L71.9349 128.718L71.9455 128.792L72.0022 128.841L80.9894 136.597L81.0929 136.686L81.2136 136.623L85.6116 134.296Z" stroke="black" stroke-width="0.4"/>
<path d="M44.2064 67.2209V67.2626L44.2231 67.3008L51.4893 83.9768L51.5003 84.0019L51.5176 84.0232L68.7271 105.159L69.1884 105.726L69.08 105.003L66.4158 87.2492L71.7163 80.5304L71.7752 80.4558L71.7544 80.3629L64.297 47.0109L64.2824 46.9458L64.2317 46.9025L53.3323 37.5949L53.1804 37.4652L53.0505 37.617L44.2545 47.894L44.2064 47.9502V48.0241V67.2209Z" fill="#A360C2"/>
<path d="M44.2064 67.2209V67.2626L44.2231 67.3008L51.4893 83.9768L51.5003 84.0019L51.5176 84.0232L68.7271 105.159L69.1884 105.726L69.08 105.003L66.4158 87.2492L71.7163 80.5304L71.7752 80.4558L71.7544 80.3629L64.297 47.0109L64.2824 46.9458L64.2317 46.9025L53.3323 37.5949L53.1804 37.4652L53.0505 37.617L44.2545 47.894L44.2064 47.9502V48.0241V67.2209Z" fill="url(#paint3_linear)" fill-opacity="0.1"/>
<path d="M44.2064 67.2209V67.2626L44.2231 67.3008L51.4893 83.9768L51.5003 84.0019L51.5176 84.0232L68.7271 105.159L69.1884 105.726L69.08 105.003L66.4158 87.2492L71.7163 80.5304L71.7752 80.4558L71.7544 80.3629L64.297 47.0109L64.2824 46.9458L64.2317 46.9025L53.3323 37.5949L53.1804 37.4652L53.0505 37.617L44.2545 47.894L44.2064 47.9502V48.0241V67.2209Z" stroke="black" stroke-width="0.4"/>
<path d="M0.809387 35.1657L0.784632 35.2436L0.821556 35.3165L23.0028 79.1395L23.1911 79.5116L23.3633 79.1318L27.6741 69.6287L49.0563 80.758L51.3244 83.6329L51.6648 83.4294L44.6063 67.1793V48.0976L52.9722 38.2644L53.0613 38.1597L52.9955 38.039L38.0805 10.6981L38.0522 10.6463L38.0004 10.6182L19.0699 0.341077L18.9643 0.28377L18.8641 0.350027L10.0681 6.16724L10.0092 6.2062L9.98782 6.2735L0.809387 35.1657Z" fill="#A360C2"/>
<path d="M0.809387 35.1657L0.784632 35.2436L0.821556 35.3165L23.0028 79.1395L23.1911 79.5116L23.3633 79.1318L27.6741 69.6287L49.0563 80.758L51.3244 83.6329L51.6648 83.4294L44.6063 67.1793V48.0976L52.9722 38.2644L53.0613 38.1597L52.9955 38.039L38.0805 10.6981L38.0522 10.6463L38.0004 10.6182L19.0699 0.341077L18.9643 0.28377L18.8641 0.350027L10.0681 6.16724L10.0092 6.2062L9.98782 6.2735L0.809387 35.1657Z" fill="url(#paint4_linear)" fill-opacity="0.4"/>
<path d="M0.809387 35.1657L0.784632 35.2436L0.821556 35.3165L23.0028 79.1395L23.1911 79.5116L23.3633 79.1318L27.6741 69.6287L49.0563 80.758L51.3244 83.6329L51.6648 83.4294L44.6063 67.1793V48.0976L52.9722 38.2644L53.0613 38.1597L52.9955 38.039L38.0805 10.6981L38.0522 10.6463L38.0004 10.6182L19.0699 0.341077L18.9643 0.28377L18.8641 0.350027L10.0681 6.16724L10.0092 6.2062L9.98782 6.2735L0.809387 35.1657Z" stroke="black" stroke-width="0.4"/>
<path d="M102.729 28.4931L102.75 28.4175L102.714 28.3477L89.9026 3.52762L89.7833 3.29651L89.5906 3.47115L71.6161 19.7593L71.5801 19.792L71.5631 19.8376L62.0022 45.4333L61.9549 45.5599L62.0548 45.651L63.9204 47.3537L71.3641 80.4504L71.4549 80.8543L71.7149 80.5322L78.4438 72.1922L81.9211 76.4608L82.0864 76.6637L82.2388 76.451L93.903 60.1628L93.9236 60.134L93.9331 60.0999L102.729 28.4931Z" fill="#A360C2"/>
<path d="M102.729 28.4931L102.75 28.4175L102.714 28.3477L89.9026 3.52762L89.7833 3.29651L89.5906 3.47115L71.6161 19.7593L71.5801 19.792L71.5631 19.8376L62.0022 45.4333L61.9549 45.5599L62.0548 45.651L63.9204 47.3537L71.3641 80.4504L71.4549 80.8543L71.7149 80.5322L78.4438 72.1922L81.9211 76.4608L82.0864 76.6637L82.2388 76.451L93.903 60.1628L93.9236 60.134L93.9331 60.0999L102.729 28.4931Z" fill="url(#paint5_linear)" fill-opacity="0.3"/>
<path d="M102.729 28.4931L102.75 28.4175L102.714 28.3477L89.9026 3.52762L89.7833 3.29651L89.5906 3.47115L71.6161 19.7593L71.5801 19.792L71.5631 19.8376L62.0022 45.4333L61.9549 45.5599L62.0548 45.651L63.9204 47.3537L71.3641 80.4504L71.4549 80.8543L71.7149 80.5322L78.4438 72.1922L81.9211 76.4608L82.0864 76.6637L82.2388 76.451L93.903 60.1628L93.9236 60.134L93.9331 60.0999L102.729 28.4931Z" stroke="black" stroke-width="0.4"/>
<path d="M27.4809 68.9829L27.2605 68.8672L27.195 69.1073L24.7092 78.221L24.6947 78.274L24.7094 78.3271L28.1513 90.7371L28.1565 90.7559L28.1653 90.7733L33.9018 102.214L33.9206 102.251L33.953 102.278L53.8396 118.76L53.9641 118.863L54.091 118.763L55.6816 117.509L61.0334 122.187V126.363V126.468L61.1203 126.528L74.6968 135.835L74.8459 135.937L74.9626 135.799L77.2572 133.085L77.3854 132.933L77.2347 132.804L72.32 128.587L68.8889 104.81L68.881 104.756L68.8467 104.713L49.3426 80.4751L49.3165 80.4427L49.2797 80.4234L27.4809 68.9829Z" fill="#A360C2"/>
<path d="M27.4809 68.9829L27.2605 68.8672L27.195 69.1073L24.7092 78.221L24.6947 78.274L24.7094 78.3271L28.1513 90.7371L28.1565 90.7559L28.1653 90.7733L33.9018 102.214L33.9206 102.251L33.953 102.278L53.8396 118.76L53.9641 118.863L54.091 118.763L55.6816 117.509L61.0334 122.187V126.363V126.468L61.1203 126.528L74.6968 135.835L74.8459 135.937L74.9626 135.799L77.2572 133.085L77.3854 132.933L77.2347 132.804L72.32 128.587L68.8889 104.81L68.881 104.756L68.8467 104.713L49.3426 80.4751L49.3165 80.4427L49.2797 80.4234L27.4809 68.9829Z" fill="url(#paint6_linear)" fill-opacity="0.45"/>
<path d="M27.4809 68.9829L27.2605 68.8672L27.195 69.1073L24.7092 78.221L24.6947 78.274L24.7094 78.3271L28.1513 90.7371L28.1565 90.7559L28.1653 90.7733L33.9018 102.214L33.9206 102.251L33.953 102.278L53.8396 118.76L53.9641 118.863L54.091 118.763L55.6816 117.509L61.0334 122.187V126.363V126.468L61.1203 126.528L74.6968 135.835L74.8459 135.937L74.9626 135.799L77.2572 133.085L77.3854 132.933L77.2347 132.804L72.32 128.587L68.8889 104.81L68.881 104.756L68.8467 104.713L49.3426 80.4751L49.3165 80.4427L49.2797 80.4234L27.4809 68.9829Z" fill="url(#paint7_linear)" fill-opacity="0.2"/>
<path d="M27.4809 68.9829L27.2605 68.8672L27.195 69.1073L24.7092 78.221L24.6947 78.274L24.7094 78.3271L28.1513 90.7371L28.1565 90.7559L28.1653 90.7733L33.9018 102.214L33.9206 102.251L33.953 102.278L53.8396 118.76L53.9641 118.863L54.091 118.763L55.6816 117.509L61.0334 122.187V126.363V126.468L61.1203 126.528L74.6968 135.835L74.8459 135.937L74.9626 135.799L77.2572 133.085L77.3854 132.933L77.2347 132.804L72.32 128.587L68.8889 104.81L68.881 104.756L68.8467 104.713L49.3426 80.4751L49.3165 80.4427L49.2797 80.4234L27.4809 68.9829Z" stroke="black" stroke-width="0.4"/>
<path d="M93.7206 115.219L93.7769 115.125L93.7286 115.027L90.8603 109.21L90.736 108.958L90.5385 109.158L88.2439 111.485L88.1836 111.546L88.1865 111.632L88.5689 123.073L88.5915 123.749L88.9402 123.169L93.7206 115.219Z" fill="white" fill-opacity="0.2" stroke="black" stroke-width="0.4"/>
<path d="M75.7318 75.4889L75.7648 75.4471L75.7726 75.3945L81.3179 38.1643L80.9271 38.0825L70.6199 76.0883L70.6067 76.1367L70.618 76.1855L71.5556 80.2576L71.6492 80.664L71.9075 80.3366L75.7318 75.4889Z" fill="url(#paint8_linear)" fill-opacity="0.3" stroke="black" stroke-width="0.4"/>
<path d="M64.2804 69.6243V69.6518L64.2878 69.6783L68.3322 84.0976L68.4361 84.4679L68.6796 84.1703L71.8448 80.3017L71.9072 80.2255L71.8848 80.1296L64.6751 49.1808L64.2804 49.2262V69.6243Z" fill="url(#paint9_linear)" fill-opacity="0.3" stroke="black" stroke-width="0.4"/>
<path d="M44.6064 47.9085L53.3492 38.4646L53.447 38.3589L53.3777 38.2325L38.2716 10.6977L38.2433 10.6462L38.1916 10.6182L19.2611 0.341077L19.1567 0.284407L19.057 0.348948L10.0698 6.16616L9.97849 6.22527V6.33406V9.04876V9.14479L10.0534 9.20484L25.511 21.59L44.2311 55.6827L44.6064 55.5865V47.9085Z" fill="url(#paint10_linear)" fill-opacity="0.7" stroke="black" stroke-width="0.4"/>
<path d="M80.9264 38.2786L80.8181 38.6972L81.2072 38.5087L102.432 28.2317L102.615 28.1433L102.524 27.9621L90.2861 3.52978L90.0473 3.05306L89.9137 3.56922L80.9264 38.2786Z" fill="url(#paint11_linear)" fill-opacity="0.7" stroke="black" stroke-width="0.4"/>
<path d="M99.1006 75.0527L99.1513 75.1772H99.2858H108.082H108.243L108.277 75.02L110.572 64.549L110.595 64.4444L110.52 64.3674L102.107 55.6415L102.001 55.5322L101.868 55.6045L93.2629 60.2582L93.1051 60.3435L93.1728 60.5096L99.1006 75.0527ZM49.7591 67.6627L49.7756 67.7213L49.8218 67.7608L53.455 70.8633L53.5189 70.9179L53.6026 70.9104L64.502 69.9409L64.6842 69.9247V69.7417V47.4424V47.3526L64.6172 47.2929L53.7178 37.5976L53.57 37.4662L53.4369 37.6124L44.2585 47.6955L44.1839 47.7775L44.2138 47.8842L49.7591 67.6627Z" fill="url(#paint12_linear)" fill-opacity="0.7" stroke="black" stroke-width="0.4"/>
<path d="M72.1447 99.4979L72.1997 99.6095H72.3241H83.2235H83.3771L83.4167 99.461L87.8147 82.9789L87.8411 82.8801L87.7765 82.8009L78.598 71.5543L78.4414 71.3624L78.2868 71.5559L66.0489 86.8746L65.9696 86.9739L66.0258 87.0879L72.1447 99.4979Z" fill="url(#paint13_linear)" fill-opacity="0.8" stroke="black" stroke-width="0.4"/>
<path d="M30.4023 127.527L30.521 127.554L30.5999 127.462L36.5276 120.481L36.5847 120.414L36.5736 120.326L35.8087 114.315L35.7858 114.135L35.6047 114.14L21.6459 114.528L21.5243 114.532L21.4713 114.641L16.8821 124.143L16.7733 124.368L17.0171 124.424L30.4023 127.527Z" fill="url(#paint14_linear)" fill-opacity="0.5" stroke="black" stroke-width="0.4"/>
<path d="M69.9077 113.335L70.2958 113.634L70.2275 113.149L69.0802 105.005L69.0726 104.951L69.0385 104.908L49.5343 80.4757L49.5079 80.4426L49.4704 80.4231L35.3203 73.0546L35.0279 72.9024V73.232V77.498V77.5879L35.0952 77.6475L38.1402 80.3494C39.1304 81.6445 40.713 83.655 42.2597 85.4991C43.0361 86.4247 43.8045 87.3099 44.4852 88.0421C45.1629 88.7711 45.7627 89.3588 46.1998 89.6812C46.5881 89.9675 46.9932 90.4829 47.3947 91.1525C47.7938 91.8179 48.1793 92.6183 48.5341 93.4569C49.2438 95.134 49.8243 96.948 50.1412 98.1049L50.159 98.1698L50.2123 98.2107L69.9077 113.335Z" fill="url(#paint15_linear)" fill-opacity="0.4" stroke="black" stroke-width="0.4"/>
<path d="M93.3687 115.202L93.4516 115.376L93.6283 115.3L99.9385 112.585L100.102 112.515L100.051 112.345L98.9039 108.466L98.8965 108.442L98.8831 108.419L97.3534 105.899L97.2595 105.744L97.0962 105.822L90.5949 108.924L90.4144 109.01L90.5005 109.191L93.3687 115.202Z" fill="url(#paint16_linear)" fill-opacity="0.6" stroke="black" stroke-width="0.4"/>
<path d="M0.809506 35.1653L0.784529 35.2434L0.821556 35.3165L23.0028 79.1395L23.1901 79.5096L23.363 79.1326L27.1873 70.7946L27.2283 70.7053L27.1827 70.6184L7.89712 33.8283L10.3776 6.54609L9.98794 6.46706L0.809506 35.1653Z" fill="url(#paint17_linear)" fill-opacity="0.3" stroke="black" stroke-width="0.4"/>
<path d="M71.9348 128.717L71.9452 128.792L72.0025 128.841L80.7985 136.403L81.2659 136.805L81.1235 136.206L72.3275 99.1694L72.3224 99.148L72.3129 99.1283L66.5763 87.3L66.1983 87.4148L71.9348 128.717Z" fill="url(#paint18_linear)" fill-opacity="0.35" stroke="black" stroke-width="0.4"/>
<path d="M85.3186 134.326L85.7024 134.391L89.1443 126.247L89.1613 126.206L89.16 126.162L87.8214 82.9212L87.4281 82.8764L83.0301 99.5524L83.0218 99.584L83.024 99.6166L85.3186 134.326Z" fill="url(#paint19_linear)" fill-opacity="0.2" stroke="black" stroke-width="0.4"/>
<path d="M90.3012 3.28041L90.4614 2.6448L89.9737 3.08272L71.6168 19.5648L71.5016 19.6683L71.5729 19.8058L81.1338 38.2269L81.3765 38.6946L81.5052 38.1837L90.3012 3.28041Z" fill="url(#paint20_linear)" fill-opacity="0.35" stroke="black" stroke-width="0.4"/>
<path d="M25.9212 22.0287L25.816 21.8401L25.636 21.9594L7.76352 33.8096L7.6135 33.9091L7.69667 34.0687L26.9439 71.0135L27.1262 71.3634L27.3007 71.0095L27.8982 69.7977L49.2498 80.7595L51.1357 83.0544L51.4734 82.8471L44.6064 67.179V55.5855V55.5335L44.5811 55.4881L25.9212 22.0287Z" fill="url(#paint21_linear)" fill-opacity="0.35" stroke="black" stroke-width="0.4"/>
<path d="M99.4769 74.7772H99.3665L99.3077 74.8706L87.8346 93.0979L87.802 93.1498L87.804 93.211L88.1864 104.845L88.2071 105.474L88.5533 104.949L108.249 75.0873L108.453 74.7772H108.082H99.4769Z" fill="url(#paint22_linear)" fill-opacity="0.4" stroke="black" stroke-width="0.4"/>
<path d="M58.5929 92.3615L58.9383 92.1743L51.4808 68.7115L51.4638 68.658L51.4214 68.6212L50.1283 67.4972L44.5991 47.5828L44.2064 47.6363V67.2209V67.2623L44.2229 67.3003L51.1067 83.2007L51.1178 83.2263L51.1355 83.2479L58.5929 92.3615Z" fill="url(#paint23_linear)" fill-opacity="0.3" stroke="black" stroke-width="0.4"/>
<path d="M104.066 108.465L104.023 108.323H103.875H98.7121H98.4424L98.5207 108.581L100.02 113.521L91.8645 123.521L91.6893 123.736L91.9484 123.835L95.0079 124.998L95.1346 125.046L95.2263 124.947L105.552 113.7L105.629 113.616L105.596 113.507L104.066 108.465Z" fill="url(#paint24_linear)" fill-opacity="0.35" stroke="black" stroke-width="0.4"/>
<path d="M103.869 108.49L103.784 108.989L104.187 108.682L108.776 105.192L108.964 105.049L108.792 104.887L106.115 102.366L106.022 102.278L105.903 102.327L104.947 102.714L104.844 102.756L104.825 102.866L103.869 108.49Z" fill="white" fill-opacity="0.4" stroke="black" stroke-width="0.4"/>
<path d="M75.7257 75.3024L78.438 72.1852L81.9211 76.4609L82.0875 76.6652L82.2395 76.4499L93.3091 60.7733L93.8524 60.406L93.9134 60.3647L93.9331 60.2939L102.729 28.687L102.76 28.5754L102.679 28.493L102.296 28.1052L102.196 28.0036L102.068 28.0652L81.0336 38.1484L80.9381 38.1942L80.9223 38.299L75.377 75.1413L75.2748 75.8206L75.7257 75.3024Z" fill="url(#paint25_linear)" fill-opacity="0.25" stroke="black" stroke-width="0.4"/>
<path d="M32.0438 136.408L32.1087 136.46L32.1911 136.451L45.7675 134.899L45.9448 134.879V134.701V133.731V133.597L45.8212 133.546L30.3326 127.147L30.3177 127.141L30.302 127.137L17.108 124.035L16.9377 124.386L32.0438 136.408Z" fill="url(#paint26_linear)" fill-opacity="0.4" stroke="black" stroke-width="0.4"/>
<path d="M55.0143 136.619L55.3296 136.802L55.3144 136.437L54.9319 127.324L54.9279 127.227L54.8494 127.17L48.1568 122.322L47.9217 122.152L47.8464 122.432L45.5517 130.964L45.5119 131.112L45.6446 131.189L55.0143 136.619Z" fill="url(#paint27_linear)" fill-opacity="0.3" stroke="black" stroke-width="0.4"/>
<path d="M45.6446 125.954L45.9448 126.128V125.781V124.23V124.144L45.8831 124.085L35.7486 114.39L35.3379 113.997L35.412 114.56L36.1769 120.377L36.1897 120.475L36.2749 120.524L45.6446 125.954Z" fill="white" fill-opacity="0.2" stroke="black" stroke-width="0.4"/>
<path d="M108.172 74.9927L108.014 74.9123L107.915 75.0602L88.0287 104.922L87.9934 104.975L87.9952 105.039L88.1864 111.631L88.2 112.099L88.5288 111.766L90.9908 109.269L97.1122 106.26L98.545 108.439L98.708 108.687L98.8767 108.443L101.52 104.613L105.673 102.891L105.719 102.871L105.75 102.833C105.868 102.69 105.973 102.57 106.068 102.462C106.08 102.448 106.092 102.434 106.104 102.421C106.185 102.329 106.26 102.244 106.328 102.162C106.488 101.968 106.615 101.782 106.718 101.522C106.915 101.021 107.012 100.26 107.134 98.6489C107.137 98.6099 107.14 98.571 107.143 98.5322C107.331 96.056 107.496 93.8897 105.768 90.9696C105.687 90.8319 105.661 90.6286 105.715 90.3416C105.769 90.0567 105.896 89.7154 106.084 89.3267C106.461 88.5495 107.062 87.6221 107.73 86.6417C107.944 86.3277 108.165 86.0083 108.386 85.6873C108.854 85.0115 109.326 84.3291 109.747 83.6776C110.367 82.7186 110.892 81.8045 111.14 81.0507C111.547 79.8118 111.186 78.49 110.549 77.3972C109.912 76.3047 108.978 75.4013 108.172 74.9927Z" fill="#A360C2"/>
<path d="M108.172 74.9927L108.014 74.9123L107.915 75.0602L88.0287 104.922L87.9934 104.975L87.9952 105.039L88.1864 111.631L88.2 112.099L88.5288 111.766L90.9908 109.269L97.1122 106.26L98.545 108.439L98.708 108.687L98.8767 108.443L101.52 104.613L105.673 102.891L105.719 102.871L105.75 102.833C105.868 102.69 105.973 102.57 106.068 102.462C106.08 102.448 106.092 102.434 106.104 102.421C106.185 102.329 106.26 102.244 106.328 102.162C106.488 101.968 106.615 101.782 106.718 101.522C106.915 101.021 107.012 100.26 107.134 98.6489C107.137 98.6099 107.14 98.571 107.143 98.5322C107.331 96.056 107.496 93.8897 105.768 90.9696C105.687 90.8319 105.661 90.6286 105.715 90.3416C105.769 90.0567 105.896 89.7154 106.084 89.3267C106.461 88.5495 107.062 87.6221 107.73 86.6417C107.944 86.3277 108.165 86.0083 108.386 85.6873C108.854 85.0115 109.326 84.3291 109.747 83.6776C110.367 82.7186 110.892 81.8045 111.14 81.0507C111.547 79.8118 111.186 78.49 110.549 77.3972C109.912 76.3047 108.978 75.4013 108.172 74.9927Z" fill="url(#paint28_linear)" fill-opacity="0.35"/>
<path d="M108.172 74.9927L108.014 74.9123L107.915 75.0602L88.0287 104.922L87.9934 104.975L87.9952 105.039L88.1864 111.631L88.2 112.099L88.5288 111.766L90.9908 109.269L97.1122 106.26L98.545 108.439L98.708 108.687L98.8767 108.443L101.52 104.613L105.673 102.891L105.719 102.871L105.75 102.833C105.868 102.69 105.973 102.57 106.068 102.462C106.08 102.448 106.092 102.434 106.104 102.421C106.185 102.329 106.26 102.244 106.328 102.162C106.488 101.968 106.615 101.782 106.718 101.522C106.915 101.021 107.012 100.26 107.134 98.6489C107.137 98.6099 107.14 98.571 107.143 98.5322C107.331 96.056 107.496 93.8897 105.768 90.9696C105.687 90.8319 105.661 90.6286 105.715 90.3416C105.769 90.0567 105.896 89.7154 106.084 89.3267C106.461 88.5495 107.062 87.6221 107.73 86.6417C107.944 86.3277 108.165 86.0083 108.386 85.6873C108.854 85.0115 109.326 84.3291 109.747 83.6776C110.367 82.7186 110.892 81.8045 111.14 81.0507C111.547 79.8118 111.186 78.49 110.549 77.3972C109.912 76.3047 108.978 75.4013 108.172 74.9927Z" stroke="black" stroke-width="0.4"/>
<path d="M24.1302 89.7404L24.1341 89.7697L24.1463 89.7966L29.455 101.525L27.2209 104.923L27.1586 105.018L27.2079 105.12L31.7971 114.621L31.8517 114.734H31.9772H35.7179L40.0571 119.135L40.3995 119.482V118.994V113.861L42.8897 112.057L47.5048 114.678L50.5371 120.828L50.6371 121.031L50.8262 120.906L54.0769 118.774L54.3032 118.625L54.0948 118.452L34.2405 101.997L28.5316 90.6114L25.1099 78.2743L27.5803 69.6026L27.2047 69.4678L22.8067 79.551L22.7844 79.6021L22.7917 79.6573L24.1302 89.7404Z" fill="#A360C2"/>
<path d="M24.1302 89.7404L24.1341 89.7697L24.1463 89.7966L29.455 101.525L27.2209 104.923L27.1586 105.018L27.2079 105.12L31.7971 114.621L31.8517 114.734H31.9772H35.7179L40.0571 119.135L40.3995 119.482V118.994V113.861L42.8897 112.057L47.5048 114.678L50.5371 120.828L50.6371 121.031L50.8262 120.906L54.0769 118.774L54.3032 118.625L54.0948 118.452L34.2405 101.997L28.5316 90.6114L25.1099 78.2743L27.5803 69.6026L27.2047 69.4678L22.8067 79.551L22.7844 79.6021L22.7917 79.6573L24.1302 89.7404Z" fill="url(#paint29_linear)" fill-opacity="0.35"/>
<path d="M24.1302 89.7404L24.1341 89.7697L24.1463 89.7966L29.455 101.525L27.2209 104.923L27.1586 105.018L27.2079 105.12L31.7971 114.621L31.8517 114.734H31.9772H35.7179L40.0571 119.135L40.3995 119.482V118.994V113.861L42.8897 112.057L47.5048 114.678L50.5371 120.828L50.6371 121.031L50.8262 120.906L54.0769 118.774L54.3032 118.625L54.0948 118.452L34.2405 101.997L28.5316 90.6114L25.1099 78.2743L27.5803 69.6026L27.2047 69.4678L22.8067 79.551L22.7844 79.6021L22.7917 79.6573L24.1302 89.7404Z" stroke="black" stroke-width="0.4"/>
<path d="M48.7252 122.456L48.9269 122.32L48.7539 122.148L40.3404 113.81L39.9996 113.473V113.952V118.8V118.884L40.0597 118.943L45.5449 124.314V131.016L45.9377 131.069L48.2127 122.803L48.7252 122.456Z" fill="black" fill-opacity="0.05" stroke="black" stroke-width="0.4"/>
<path d="M54.4191 127.491L54.542 127.585L54.6642 127.49L61.3568 122.254L61.5512 122.102L61.3621 121.943L55.8168 117.29L55.7012 117.193L55.5762 117.277L48.1187 122.319L47.889 122.474L48.1089 122.643L54.4191 127.491Z" fill="url(#paint30_linear)" fill-opacity="0.8" stroke="black" stroke-width="0.4"/>
<path d="M25.7465 22.126L7.87404 33.9762L9.93624 8.88168L25.7465 22.126Z" fill="url(#paint31_linear)" fill-opacity="0.2" stroke="black" stroke-width="0.4"/>
<defs>
<filter id="filter0_d" x="14.0021" y="89.8288" width="109.669" height="59.85" filterUnits="userSpaceOnUse" color-interpolation-filters="sRGB">
<feFlood flood-opacity="0" result="BackgroundImageFix"/>
<feColorMatrix in="SourceAlpha" type="matrix" values="0 0 0 0 0 0 0 0 0 0 0 0 0 0 0 0 0 0 127 0"/>
<feOffset dx="6" dy="4"/>
<feGaussianBlur stdDeviation="4.5"/>
<feColorMatrix type="matrix" values="0 0 0 0 0 0 0 0 0 0 0 0 0 0 0 0 0 0 0.25 0"/>
<feBlend mode="normal" in2="BackgroundImageFix" result="effect1_dropShadow"/>
<feBlend mode="normal" in="SourceGraphic" in2="effect1_dropShadow" result="shape"/>
</filter>
<linearGradient id="paint0_linear" x1="95.2534" y1="69.4484" x2="87.7055" y2="81.6573" gradientUnits="userSpaceOnUse">
<stop stop-color="white"/>
<stop offset="1" stop-color="white" stop-opacity="0"/>
</linearGradient>
<linearGradient id="paint1_linear" x1="103.11" y1="109.299" x2="98.2187" y2="119.718" gradientUnits="userSpaceOnUse">
<stop offset="0.264824" stop-color="white"/>
<stop offset="1" stop-color="white" stop-opacity="0"/>
</linearGradient>
<linearGradient id="paint2_linear" x1="77.5826" y1="71.8747" x2="74.7317" y2="114.529" gradientUnits="userSpaceOnUse">
<stop stop-color="white"/>
<stop offset="1" stop-color="white" stop-opacity="0"/>
</linearGradient>
<linearGradient id="paint3_linear" x1="57.9828" y1="76.7223" x2="60.927" y2="87.7548" gradientUnits="userSpaceOnUse">
<stop stop-color="white"/>
<stop offset="0.883317" stop-color="white" stop-opacity="0"/>
</linearGradient>
<linearGradient id="paint4_linear" x1="18.592" y1="0.516846" x2="30.1785" y2="52.8042" gradientUnits="userSpaceOnUse">
<stop stop-color="white"/>
<stop offset="1" stop-color="white" stop-opacity="0"/>
</linearGradient>
<linearGradient id="paint5_linear" x1="71.115" y1="27.7026" x2="64.1186" y2="48.9362" gradientUnits="userSpaceOnUse">
<stop stop-color="white"/>
<stop offset="1" stop-color="white" stop-opacity="0"/>
</linearGradient>
<linearGradient id="paint6_linear" x1="55.9921" y1="116.928" x2="47.5361" y2="93.3015" gradientUnits="userSpaceOnUse">
<stop/>
<stop offset="1" stop-opacity="0"/>
</linearGradient>
<linearGradient id="paint7_linear" x1="27.8086" y1="72.3152" x2="28.5155" y2="91.8325" gradientUnits="userSpaceOnUse">
<stop offset="0.0376023" stop-color="white"/>
<stop offset="1" stop-color="white" stop-opacity="0"/>
</linearGradient>
<linearGradient id="paint8_linear" x1="72.8978" y1="62.3732" x2="77.4178" y2="31.1719" gradientUnits="userSpaceOnUse">
<stop offset="0.125263"/>
<stop offset="0.943949" stop-opacity="0"/>
</linearGradient>
<linearGradient id="paint9_linear" x1="65.3596" y1="59.2494" x2="72.8184" y2="85.4796" gradientUnits="userSpaceOnUse">
<stop offset="0.125263"/>
<stop offset="0.943949" stop-opacity="0"/>
</linearGradient>
<linearGradient id="paint10_linear" x1="14.1941" y1="0.516846" x2="106.178" y2="71.5965" gradientUnits="userSpaceOnUse">
<stop stop-color="white"/>
<stop offset="1" stop-color="white" stop-opacity="0"/>
</linearGradient>
<linearGradient id="paint11_linear" x1="91.7326" y1="3.61935" x2="91.6343" y2="55.1986" gradientUnits="userSpaceOnUse">
<stop stop-color="white"/>
<stop offset="1" stop-color="white" stop-opacity="0"/>
</linearGradient>
<linearGradient id="paint12_linear" x1="81.6489" y1="47.4398" x2="70.4981" y2="75.2389" gradientUnits="userSpaceOnUse">
<stop stop-color="white"/>
<stop offset="1" stop-color="white" stop-opacity="0"/>
</linearGradient>
<linearGradient id="paint13_linear" x1="83.1152" y1="72.3677" x2="69.822" y2="100.182" gradientUnits="userSpaceOnUse">
<stop stop-color="white"/>
<stop offset="1" stop-color="white" stop-opacity="0"/>
</linearGradient>
<linearGradient id="paint14_linear" x1="32.3596" y1="112.207" x2="21.2724" y2="126.018" gradientUnits="userSpaceOnUse">
<stop stop-color="white"/>
<stop offset="1" stop-color="white" stop-opacity="0"/>
</linearGradient>
<linearGradient id="paint15_linear" x1="43.2591" y1="78.0797" x2="70.3276" y2="114.951" gradientUnits="userSpaceOnUse">
<stop stop-color="white"/>
<stop offset="1" stop-color="white" stop-opacity="0"/>
</linearGradient>
<linearGradient id="paint16_linear" x1="95.8439" y1="105.227" x2="92.5075" y2="117.419" gradientUnits="userSpaceOnUse">
<stop stop-color="white"/>
<stop offset="1" stop-color="white" stop-opacity="0"/>
</linearGradient>
<linearGradient id="paint17_linear" x1="1" y1="39.5528" x2="23.5148" y2="89.5085" gradientUnits="userSpaceOnUse">
<stop/>
<stop offset="0.785698" stop-opacity="0"/>
</linearGradient>
<linearGradient id="paint18_linear" x1="76.6142" y1="114.139" x2="70.9667" y2="139.201" gradientUnits="userSpaceOnUse">
<stop/>
<stop offset="1" stop-opacity="0"/>
</linearGradient>
<linearGradient id="paint19_linear" x1="88.9601" y1="89.7141" x2="85.8142" y2="141.288" gradientUnits="userSpaceOnUse">
<stop stop-color="white"/>
<stop offset="1" stop-color="white" stop-opacity="0"/>
</linearGradient>
<linearGradient id="paint20_linear" x1="85.3269" y1="8.66093" x2="61.1929" y2="40.1373" gradientUnits="userSpaceOnUse">
<stop stop-color="white"/>
<stop offset="1" stop-color="white" stop-opacity="0"/>
</linearGradient>
<linearGradient id="paint21_linear" x1="16.8103" y1="37.4617" x2="30.1549" y2="61.7028" gradientUnits="userSpaceOnUse">
<stop/>
<stop offset="1" stop-opacity="0.35"/>
</linearGradient>
<linearGradient id="paint22_linear" x1="103.423" y1="74.4064" x2="89.3921" y2="97.236" gradientUnits="userSpaceOnUse">
<stop stop-color="white"/>
<stop offset="1" stop-color="white" stop-opacity="0"/>
</linearGradient>
<linearGradient id="paint23_linear" x1="49.5693" y1="75.5589" x2="42.7788" y2="89.6685" gradientUnits="userSpaceOnUse">
<stop/>
<stop offset="1" stop-opacity="0"/>
</linearGradient>
<linearGradient id="paint24_linear" x1="102.048" y1="109.26" x2="97.1152" y2="123.158" gradientUnits="userSpaceOnUse">
<stop/>
<stop offset="1" stop-opacity="0"/>
</linearGradient>
<linearGradient id="paint25_linear" x1="91.737" y1="43.7353" x2="81.1605" y2="77.1106" gradientUnits="userSpaceOnUse">
<stop/>
<stop offset="1" stop-opacity="0"/>
</linearGradient>
<linearGradient id="paint26_linear" x1="34.0806" y1="137.221" x2="31.7235" y2="125.6" gradientUnits="userSpaceOnUse">
<stop/>
<stop offset="1" stop-opacity="0"/>
</linearGradient>
<linearGradient id="paint27_linear" x1="48.9956" y1="131.404" x2="51.1536" y2="124.246" gradientUnits="userSpaceOnUse">
<stop/>
<stop offset="1" stop-opacity="0"/>
</linearGradient>
<linearGradient id="paint28_linear" x1="99.9858" y1="89.0448" x2="92.937" y2="109.898" gradientUnits="userSpaceOnUse">
<stop offset="0.0260083"/>
<stop offset="1" stop-opacity="0"/>
</linearGradient>
<linearGradient id="paint29_linear" x1="29.8709" y1="100.198" x2="15.2152" y2="116.027" gradientUnits="userSpaceOnUse">
<stop/>
<stop offset="1" stop-opacity="0"/>
</linearGradient>
<linearGradient id="paint30_linear" x1="57.6004" y1="117.249" x2="53.2889" y2="128.844" gradientUnits="userSpaceOnUse">
<stop stop-color="white"/>
<stop offset="1" stop-color="white" stop-opacity="0"/>
</linearGradient>
<linearGradient id="paint31_linear" x1="11.311" y1="29.0967" x2="15.5452" y2="12.3949" gradientUnits="userSpaceOnUse">
<stop/>
<stop offset="1" stop-opacity="0.05"/>
</linearGradient>
</defs>
</svg>
