<svg width="117" height="117" viewBox="0 0 117 117" fill="none" xmlns="http://www.w3.org/2000/svg">
<g filter="url(#filter0_d)">
<path d="M68.4248 12.1931L75.9004 38.4936L75.9673 38.7291L76.2075 38.7766L103.029 44.0853L83.9903 63.7096L83.8198 63.8853L83.8987 64.117L92.7123 89.9999L66.1976 83.3236L65.9602 83.2639L65.7989 83.4481L47.7905 104.022L40.3149 77.7217L40.248 77.4863L40.0078 77.4387L13.1859 72.13L32.225 52.5058L32.3955 52.3301L32.3165 52.0983L23.503 26.2154L50.0177 32.8917L50.2551 32.9515L50.4164 32.7672L68.4248 12.1931Z" fill="#D9B32B"/>
<path d="M68.4248 12.1931L75.9004 38.4936L75.9673 38.7291L76.2075 38.7766L103.029 44.0853L83.9903 63.7096L83.8198 63.8853L83.8987 64.117L92.7123 89.9999L66.1976 83.3236L65.9602 83.2639L65.7989 83.4481L47.7905 104.022L40.3149 77.7217L40.248 77.4863L40.0078 77.4387L13.1859 72.13L32.225 52.5058L32.3955 52.3301L32.3165 52.0983L23.503 26.2154L50.0177 32.8917L50.2551 32.9515L50.4164 32.7672L68.4248 12.1931Z" fill="url(#paint0_linear)" fill-opacity="0.2"/>
<path d="M68.4248 12.1931L75.9004 38.4936L75.9673 38.7291L76.2075 38.7766L103.029 44.0853L83.9903 63.7096L83.8198 63.8853L83.8987 64.117L92.7123 89.9999L66.1976 83.3236L65.9602 83.2639L65.7989 83.4481L47.7905 104.022L40.3149 77.7217L40.248 77.4863L40.0078 77.4387L13.1859 72.13L32.225 52.5058L32.3955 52.3301L32.3165 52.0983L23.503 26.2154L50.0177 32.8917L50.2551 32.9515L50.4164 32.7672L68.4248 12.1931Z" stroke="black" stroke-width="0.8"/>
<circle cx="58.1077" cy="58.1076" r="23.9485" transform="rotate(22.1093 58.1077 58.1076)" fill="#D9B32B"/>
<circle cx="58.1077" cy="58.1076" r="23.9485" transform="rotate(22.1093 58.1077 58.1076)" fill="url(#paint1_diamond)" fill-opacity="0.2"/>
<circle cx="58.1077" cy="58.1076" r="23.4985" transform="rotate(22.1093 58.1077 58.1076)" stroke="black" stroke-opacity="0.25" stroke-width="0.9"/>
<circle cx="24.2816" cy="27.7485" r="4.78181" transform="rotate(22.1093 24.2816 27.7485)" fill="#D9B32B"/>
<circle cx="24.2816" cy="27.7485" r="4.78181" transform="rotate(22.1093 24.2816 27.7485)" fill="url(#paint2_linear)" fill-opacity="0.2"/>
<circle cx="24.2816" cy="27.7485" r="4.78181" transform="rotate(22.1093 24.2816 27.7485)" stroke="black" stroke-width="0.7"/>
<circle cx="13.8814" cy="71.5292" r="4.78181" transform="rotate(22.1093 13.8814 71.5292)" fill="#D9B32B"/>
<circle cx="13.8814" cy="71.5292" r="4.78181" transform="rotate(22.1093 13.8814 71.5292)" fill="url(#paint3_linear)" fill-opacity="0.2"/>
<circle cx="13.8814" cy="71.5292" r="4.78181" transform="rotate(22.1093 13.8814 71.5292)" stroke="black" stroke-width="0.7"/>
<circle cx="68.5079" cy="14.327" r="4.78181" transform="rotate(22.1093 68.5079 14.327)" fill="#D9B32B"/>
<circle cx="68.5079" cy="14.327" r="4.78181" transform="rotate(22.1093 68.5079 14.327)" fill="url(#paint4_linear)" fill-opacity="0.2"/>
<circle cx="68.5079" cy="14.327" r="4.78181" transform="rotate(22.1093 68.5079 14.327)" stroke="black" stroke-width="0.7"/>
<circle cx="102.334" cy="44.6861" r="4.78181" transform="rotate(22.1093 102.334 44.6861)" fill="#D9B32B"/>
<circle cx="102.334" cy="44.6861" r="4.78181" transform="rotate(22.1093 102.334 44.6861)" fill="url(#paint5_linear)" fill-opacity="0.2"/>
<circle cx="102.334" cy="44.6861" r="4.78181" transform="rotate(22.1093 102.334 44.6861)" stroke="black" stroke-width="0.7"/>
<circle cx="91.9337" cy="88.4667" r="4.78181" transform="rotate(22.1093 91.9337 88.4667)" fill="#D9B32B"/>
<circle cx="91.9337" cy="88.4667" r="4.78181" transform="rotate(22.1093 91.9337 88.4667)" fill="url(#paint6_linear)" fill-opacity="0.2"/>
<circle cx="91.9337" cy="88.4667" r="4.78181" transform="rotate(22.1093 91.9337 88.4667)" stroke="black" stroke-width="0.7"/>
<circle cx="47.7074" cy="101.888" r="4.78181" transform="rotate(22.1093 47.7074 101.888)" fill="#D9B32B" stroke="black" stroke-width="0.7"/>
<path d="M38.0385 54.9385C38.1258 54.9647 38.1937 54.897 38.2422 54.7355L39.8072 49.5168C39.8255 49.4557 39.8207 49.4162 39.7927 49.3983C39.7692 49.3818 39.7137 49.3604 39.6264 49.3342L38.7556 49.073L39.38 46.8481L42.0869 47.6741L41.4048 49.8532L40.5143 49.5862C40.4226 49.5587 40.3631 49.567 40.3356 49.6111C40.3124 49.6565 40.2937 49.7032 40.2793 49.7512L38.9996 53.8993L38.7241 54.7944C38.6822 54.934 38.6837 55.032 38.7287 55.0883C38.775 55.1403 38.8483 55.1813 38.9487 55.2114L39.5072 55.3718L40.3689 55.6159C40.3689 55.6159 40.5507 55.6681 40.9144 55.7723C41.1457 55.8417 41.2961 55.7607 41.3655 55.5294L41.5716 54.7705C41.6205 54.5758 41.6781 54.3599 41.7444 54.1229L42.2159 54.2643L40.9932 58.2938L36.4477 56.9592L37.1349 54.6675L38.0385 54.9385ZM43.1354 56.4812C43.3231 56.5375 43.468 56.3954 43.5701 56.0549L44.9329 51.5107C45.0232 51.2095 44.9867 51.0059 44.8234 50.8998C44.7235 50.8366 44.5316 50.7624 44.2479 50.6773L43.8747 50.5654L44.5187 48.4177C44.9129 48.5311 45.2896 48.6393 45.6489 48.7423L46.9886 49.1298L49.1363 49.7739L48.0916 53.1146L47.6031 52.9824C47.6437 52.8946 47.6974 52.7394 47.7642 52.5168C47.8309 52.2942 47.844 52.1316 47.8034 52.029C47.7628 51.9264 47.6908 51.8335 47.5873 51.7501C47.4013 51.6087 47.1315 51.485 46.778 51.3789C46.4244 51.2729 46.1725 51.2164 46.0224 51.2094C45.8766 51.2038 45.7637 51.2151 45.6838 51.2435C45.5769 51.2828 45.5018 51.3745 45.4586 51.5185L44.8499 53.5484L45.7863 53.8292C45.8605 53.8514 45.9382 53.8462 46.0193 53.8134C46.1018 53.7763 46.1603 53.7082 46.1948 53.6091C46.2349 53.507 46.2707 53.4035 46.3022 53.2988C46.3022 53.2988 46.3323 53.1984 46.3925 52.9976C46.4265 52.8841 46.459 52.7677 46.49 52.6486L46.9824 52.7677L46.0399 56.0534L45.575 55.914L45.7065 55.4752C45.7388 55.3517 45.7718 55.226 45.8054 55.0981C45.8752 54.8336 45.8944 54.6585 45.8629 54.573C45.8359 54.4887 45.8022 54.4263 45.7621 54.3857C45.701 54.3198 45.6377 54.277 45.5722 54.2574C45.4325 54.2155 45.285 54.176 45.1296 54.1389C44.9755 54.0975 44.8345 54.06 44.7066 54.0264C44.6079 54.3393 44.5174 54.6333 44.4349 54.9084L44.2143 55.6201L44.0533 56.157C43.9918 56.3622 43.9914 56.5143 44.0521 56.6134C44.1429 56.7548 44.2428 56.8419 44.352 56.8746L46.1199 57.4048C46.4342 57.499 46.6489 57.3541 46.7641 56.97L46.9166 56.4376C46.9411 56.3403 46.9677 56.2436 46.9965 56.1476L47.4784 56.2778L46.2982 59.9276C45.5562 59.6575 45.0454 59.4805 44.766 59.3967L44.144 59.2102L43.8232 59.114L42.5948 58.7599C42.2748 58.6687 41.9439 58.5742 41.6021 58.4765L42.2776 56.224L43.1354 56.4812ZM50.0794 52.4832L49.6584 52.3641C49.5523 52.337 49.4381 52.3052 49.3159 52.2685L49.9377 50.0285L52.4102 50.7557L51.715 52.9309C51.5915 52.8986 51.4811 52.8702 51.3837 52.8458C51.189 52.7969 51.0459 52.7587 50.9542 52.7312C50.8669 52.7051 50.8121 52.7053 50.7898 52.7319C50.7733 52.7555 50.7621 52.7926 50.7565 52.8432C50.7508 52.8939 50.7405 53.0074 50.7257 53.1837C50.7153 53.3614 50.6989 53.5825 50.6767 53.847C50.6588 54.1128 50.6361 54.4105 50.6087 54.7401C50.5869 55.0666 50.5631 55.3997 50.5374 55.7393C50.5117 56.0789 50.4858 56.4113 50.4596 56.7365C50.4391 57.0586 50.4191 57.3476 50.3995 57.6034C50.3646 58.0687 50.3465 58.3511 50.3452 58.4507C50.3422 58.5877 50.3843 58.6694 50.4716 58.6955L50.6792 58.7649C50.7259 58.7837 50.7754 58.8009 50.8278 58.8166C50.9195 58.8441 51.003 58.7954 51.0786 58.6706C51.0812 58.6619 51.1872 58.4748 51.3967 58.1094C51.6075 57.7397 51.7943 57.4103 51.9571 57.1213C52.1212 56.828 52.2888 56.5309 52.4599 56.2302C52.6366 55.9263 52.807 55.6277 52.9711 55.3344C53.1396 55.0423 53.2902 54.7782 53.4228 54.5421C53.6747 54.099 53.8246 53.8371 53.8726 53.7563C53.925 53.6769 53.9321 53.6291 53.8942 53.6129C53.8619 53.5937 53.8195 53.5763 53.7671 53.5605L52.8504 53.2856L53.4539 51.0829C53.6198 51.1327 53.7841 51.1796 53.947 51.2237L54.8132 51.4763L55.9264 51.8101L55.1749 53.9827C55.1051 53.9618 55.0381 53.9393 54.9739 53.9153L54.6681 53.8165C54.5677 53.7864 54.4874 53.8241 54.4272 53.9298L51.5179 58.8951C51.5074 58.9301 51.5053 58.9532 51.5114 58.9645C51.5219 58.9772 51.5402 58.9875 51.5664 58.9953C51.5926 59.0032 51.7689 59.0656 52.0955 59.1825L51.4069 61.4311L48.4747 60.5232L49.0887 58.238L49.6256 58.399C49.7042 58.4226 49.757 58.4289 49.7841 58.418C49.8124 58.4027 49.8255 58.3829 49.8233 58.3584C49.8268 58.3309 49.8347 58.2333 49.8469 58.0657C49.8604 57.8937 49.8739 57.6742 49.8874 57.407C49.9053 57.1412 49.9242 56.84 49.9443 56.5034C49.97 56.1638 49.9948 55.8192 50.0188 55.4696C50.0428 55.1199 50.0648 54.7768 50.0848 54.4403C50.1092 54.105 50.1297 53.8067 50.1463 53.5452C50.186 52.9529 50.2073 52.6357 50.2104 52.5938C50.2147 52.5476 50.1711 52.5107 50.0794 52.4832ZM54.8953 60.0079C55.083 60.0642 55.2279 59.9221 55.33 59.5816L56.6928 55.0374C56.7831 54.7362 56.7466 54.5326 56.5834 54.4265C56.4834 54.3632 56.2916 54.289 56.0078 54.2039L55.6346 54.092L56.2787 51.9443C56.6728 52.0578 57.0495 52.166 57.4088 52.269L58.7485 52.6565L60.8962 53.3005L59.8515 56.6412L59.3631 56.509C59.4036 56.4213 59.4573 56.2661 59.5241 56.0435C59.5908 55.8208 59.6039 55.6582 59.5633 55.5557C59.5227 55.4531 59.4507 55.3601 59.3472 55.2768C59.1613 55.1354 58.8915 55.0116 58.5379 54.9056C58.1843 54.7996 57.9324 54.7431 57.7823 54.7361C57.6365 54.7304 57.5236 54.7418 57.4438 54.7702C57.3368 54.8095 57.2618 54.9011 57.2186 55.0452L56.6098 57.075L57.5462 57.3558C57.6204 57.3781 57.6981 57.3728 57.7793 57.3401C57.8618 57.303 57.9203 57.2349 57.9547 57.1358C57.9949 57.0336 58.0307 56.9302 58.0621 56.8254C58.0621 56.8254 58.0922 56.725 58.1524 56.5242C58.1864 56.4107 58.2189 56.2944 58.2499 56.1752L58.7423 56.2943L57.7998 59.58L57.3349 59.4406L57.4665 59.0019C57.4988 58.8784 57.5317 58.7527 57.5653 58.6248C57.6351 58.3602 57.6543 58.1852 57.6229 58.0996C57.5958 58.0154 57.5622 57.953 57.522 57.9124C57.4609 57.8465 57.3976 57.8037 57.3321 57.7841C57.1924 57.7422 57.0449 57.7027 56.8895 57.6656C56.7354 57.6241 56.5944 57.5866 56.4665 57.553C56.3679 57.866 56.2773 58.16 56.1949 58.435L55.9743 59.1468L55.8133 59.6837C55.7517 59.8889 55.7513 60.041 55.812 60.1401C55.9028 60.2815 56.0028 60.3686 56.1119 60.4013L57.8798 60.9315C58.1941 61.0257 58.4089 60.8808 58.5241 60.4966L58.6766 59.9643C58.701 59.8669 58.7276 59.7703 58.7564 59.6742L59.2383 59.8045L58.0582 63.4542C57.3161 63.1841 56.8053 63.0072 56.526 62.9234L55.9039 62.7368L55.5831 62.6406L54.3547 62.2865C54.0347 62.1953 53.7039 62.1009 53.3621 62.0031L54.0375 59.7507L54.8953 60.0079ZM60.4976 61.6737C60.5849 61.6999 60.6528 61.6322 60.7013 61.4707L62.2663 56.2521C62.2846 56.1909 62.2798 56.1514 62.2518 56.1335C62.2283 56.117 62.1728 56.0956 62.0855 56.0694L61.2147 55.8082L61.8391 53.5833L64.546 54.4093L63.8639 56.5884L62.9734 56.3214C62.8817 56.2939 62.8222 56.3022 62.7947 56.3463C62.7715 56.3917 62.7528 56.4384 62.7384 56.4864L61.4587 60.6345L61.1832 61.5296C61.1413 61.6693 61.1428 61.7673 61.1878 61.8236C61.2341 61.8755 61.3074 61.9165 61.4078 61.9466L61.9663 62.107L62.828 62.3511C62.828 62.3511 63.0098 62.4033 63.3735 62.5076C63.6048 62.5769 63.7552 62.496 63.8246 62.2646L64.0307 61.5057C64.0796 61.311 64.1372 61.0952 64.2035 60.8581L64.675 60.9995L63.4523 65.0291L58.9068 63.6945L59.594 61.4027L60.4976 61.6737ZM68.0762 65.1026L69.9855 58.6883C70.034 58.5268 69.9818 58.4231 69.829 58.3773L69.1677 58.179L69.8327 56.009L72.1781 56.6838L71.5249 58.8145C71.4013 58.7822 71.2909 58.7539 71.1936 58.7294C71.0032 58.6819 70.8601 58.6437 70.764 58.6149C70.6287 58.5743 70.5381 58.6304 70.4923 58.7832L69.0903 63.4583C69.0052 63.7421 69.029 63.98 69.1617 64.172C69.2525 64.3135 69.3831 64.4097 69.5533 64.4607L70.9218 64.8711C71.2317 64.9641 71.4902 64.8798 71.697 64.6183C71.7664 64.5297 71.8168 64.433 71.8482 64.3282L72.1448 63.3395L73.0349 60.3236L73.2549 59.5902C73.2967 59.4505 73.2326 59.3552 73.0623 59.3041L72.4206 59.1117L73.0123 56.9483L75.3473 57.6342L74.7255 59.8029C74.6194 59.7758 74.5221 59.7514 74.4334 59.7296C74.3505 59.7047 74.2676 59.6798 74.1846 59.655L74.0078 59.6019C73.8769 59.5627 73.7885 59.6194 73.7427 59.7722L72.3596 64.503L71.8596 66.1943C71.726 66.6396 71.5853 66.9185 71.4373 67.0312C71.295 67.1407 71.1527 67.2027 71.0104 67.2172C70.8695 67.2272 70.7007 67.2028 70.5043 67.1439L68.7167 66.6078C68.0489 66.4075 67.8354 65.9058 68.0762 65.1026ZM76.5628 60.5537C76.5785 60.4537 76.5318 60.3874 76.4227 60.3547L75.375 60.0405L76.0348 57.8404L78.7849 58.6651C79.1952 58.7882 79.5589 59.059 79.8758 59.4776C80.157 59.8569 80.295 60.3645 80.2898 61.0005C80.2854 61.3323 80.2191 61.712 80.0908 62.1398C79.8591 62.9125 79.5325 63.4782 79.1108 63.8371C78.7988 64.1003 78.4413 64.2453 78.0384 64.272C77.8153 64.2859 77.5969 64.2609 77.383 64.1967L76.2174 63.8472C76.1651 63.8315 76.1328 63.8361 76.1205 63.861C76.1096 63.8815 76.1022 63.8983 76.0983 63.9114L76.0453 64.0882L75.504 65.8456C75.504 65.8456 75.4843 65.9111 75.445 66.042C75.4293 66.0944 75.4311 66.1283 75.4503 66.1435C75.4739 66.1601 75.5075 66.175 75.5511 66.188L76.553 66.4885L75.9128 68.7658L73.0842 67.9175L73.812 65.6808C73.9779 65.7305 74.1292 65.7735 74.2658 65.8097C74.2658 65.8097 74.4301 65.8566 74.7588 65.9505C74.8287 65.9714 74.876 65.9404 74.9009 65.8575L76.5628 60.5537ZM76.3005 63.0942C76.2573 63.2383 76.3252 63.3371 76.5042 63.3908L77.5911 63.7168C78.0364 63.8503 78.4401 63.7097 78.8024 63.295C78.9486 63.1247 79.0682 62.8846 79.1611 62.5747C79.2541 62.2648 79.2687 62.0098 79.2049 61.8099C79.1468 61.607 79.0545 61.4389 78.9279 61.3058C78.7358 61.1054 78.487 60.9595 78.1814 60.8678L77.3629 60.6224C77.2364 60.5844 77.1569 60.5796 77.1246 60.608C77.0936 60.632 77.0716 60.6658 77.0585 60.7095C77.0454 60.7531 77.021 60.8267 76.9852 60.9301C76.9551 61.0305 76.9136 61.1608 76.8608 61.3211C76.8124 61.4826 76.7572 61.6587 76.6952 61.8495C76.6332 62.0402 76.5739 62.2223 76.5172 62.3956C76.4661 62.5658 76.4188 62.7157 76.3751 62.8454C76.3359 62.9764 76.311 63.0593 76.3005 63.0942Z" fill="black"/>
</g>
<defs>
<filter id="filter0_d" x="6.1954" y="7.64108" width="109.825" height="108.933" filterUnits="userSpaceOnUse" color-interpolation-filters="sRGB">
<feFlood flood-opacity="0" result="BackgroundImageFix"/>
<feColorMatrix in="SourceAlpha" type="matrix" values="0 0 0 0 0 0 0 0 0 0 0 0 0 0 0 0 0 0 127 0"/>
<feOffset dx="3" dy="4"/>
<feGaussianBlur stdDeviation="2"/>
<feColorMatrix type="matrix" values="0 0 0 0 0 0 0 0 0 0 0 0 0 0 0 0 0 0 0.5 0"/>
<feBlend mode="normal" in2="BackgroundImageFix" result="effect1_dropShadow"/>
<feBlend mode="normal" in="SourceGraphic" in2="effect1_dropShadow" result="shape"/>
</filter>
<linearGradient id="paint0_linear" x1="37.4924" y1="12.918" x2="84.1923" y2="117.16" gradientUnits="userSpaceOnUse">
<stop stop-opacity="0"/>
<stop offset="0.354167" stop-color="#E8C342" stop-opacity="0"/>
<stop offset="0.772782"/>
</linearGradient>
<radialGradient id="paint1_diamond" cx="0" cy="0" r="1" gradientUnits="userSpaceOnUse" gradientTransform="translate(89.7538 87.1879) rotate(-134.465) scale(64.7154 120.655)">
<stop offset="0.187725"/>
<stop offset="1" stop-opacity="0"/>
</radialGradient>
<linearGradient id="paint2_linear" x1="26.9391" y1="31.5363" x2="21.9391" y2="28.0363" gradientUnits="userSpaceOnUse">
<stop/>
<stop offset="1" stop-opacity="0"/>
</linearGradient>
<linearGradient id="paint3_linear" x1="16.5388" y1="75.317" x2="11.5388" y2="71.817" gradientUnits="userSpaceOnUse">
<stop/>
<stop offset="1" stop-opacity="0"/>
</linearGradient>
<linearGradient id="paint4_linear" x1="71.1654" y1="18.1148" x2="66.1654" y2="14.6148" gradientUnits="userSpaceOnUse">
<stop/>
<stop offset="1" stop-opacity="0"/>
</linearGradient>
<linearGradient id="paint5_linear" x1="104.991" y1="48.4739" x2="99.9914" y2="44.9739" gradientUnits="userSpaceOnUse">
<stop/>
<stop offset="1" stop-opacity="0"/>
</linearGradient>
<linearGradient id="paint6_linear" x1="94.5912" y1="92.2545" x2="89.5912" y2="88.7545" gradientUnits="userSpaceOnUse">
<stop/>
<stop offset="1" stop-opacity="0"/>
</linearGradient>
</defs>
</svg>
